<?xml version="1.0" encoding="UTF-8"?>
<!DOCTYPE svg PUBLIC "-//W3C//DTD SVG 1.1//EN" "http://www.w3.org/Graphics/SVG/1.1/DTD/svg11.dtd">
<!-- Creator: CorelDRAW 2020 (64-Bit) -->
<svg xmlns="http://www.w3.org/2000/svg" xml:space="preserve" width="512px" height="448px" version="1.1" style="shape-rendering:geometricPrecision; text-rendering:geometricPrecision; image-rendering:optimizeQuality; fill-rule:evenodd; clip-rule:evenodd"
viewBox="0 0 512 448"
 xmlns:xlink="http://www.w3.org/1999/xlink"
 xmlns:xodm="http://www.corel.com/coreldraw/odm/2003">
 <defs>
  <style type="text/css">
   <![CDATA[
    .fil0 {fill:#2B254E}
    .fil2 {fill:#60588E}
    .fil5 {fill:#847DAA}
    .fil8 {fill:#8781AA}
    .fil4 {fill:#EBEEF5}
    .fil3 {fill:#FED15B}
    .fil6 {fill:#FEFEFE}
    .fil1 {fill:#FF6D5B}
    .fil7 {fill:#FFD465}
   ]]>
  </style>
 </defs>
 <g id="Layer_x0020_1">
  <metadata id="CorelCorpID_0Corel-Layer"/>
  <g id="_2524904030000">
   <path class="fil0" d="M83.12 161.95l0.03 6.83 0.12 23.07 36.28 0.12c0.29,1.22 0.44,0.79 -0.28,1.75 -0.09,4.16 -2.95,17.45 -2.42,19.93 -1.05,3.11 1.18,3.81 1.65,0.36l2.38 -16.92c0.32,-2.29 0.17,-4.67 1.33,-5.04 7.28,0 14.56,0 21.85,0 17.62,0 21.64,1.5 38.73,-3.99 5.26,-1.69 10.64,-4.46 15.63,-5.91 -0.62,2.18 -4.96,9.43 -6.36,11.89 -2.18,3.85 -4.16,7.64 -6.33,11.4 -3.12,5.42 -35.98,64.15 -37.86,68.41 1.95,0.58 4.46,0.84 6.49,1.2 7.88,1.37 3.26,0.03 13.14,-7.56l0 9.66c4.82,0.67 3.62,1.64 5.84,0.01 1.6,-1.19 2.31,-1.99 4.13,-3.08l1.65 5.48 12.26 2.65 7.49 1.6 27.98 -80.71 14.33 -41.54c-3.84,-1.6 -9.09,-2.5 -13.27,-4.16 -4.54,-1.8 -9.09,-3.68 -8.77,-8.63l-0.79 -0.18c-4.01,-0.01 -11.51,1.64 -16.05,2.17 -5.33,0.62 -10.74,1.11 -16.19,1.32 -11.73,0.46 -23.35,0.54 -35.05,1.06 -5.76,0.26 -63.14,2.89 -67.91,3.66l-0.03 5.15z"/>
   <path class="fil0" d="M255 242l-1.54 41.77 19.91 -2.31c1.84,-2.65 2.94,-5.8 4.82,-8.72 1.53,1.9 3.37,6.35 4.97,7.56l13.26 -2.52 2.23 -4.83c1.84,1.09 4.6,4.64 6.15,4.77 1.64,0.14 7.34,-0.87 9.63,-1.1l-28.41 -81.38c10.91,3.1 21.93,6.1 32.98,9.17 19.32,5.38 15.81,5.63 36.31,5.06l-2.17 18.23 0.05 2.39c2.85,-0.3 1.03,-0.62 1.95,-2.8l2.33 -17.92 31.35 -1.06 4.74 24.29c0.08,0.13 0.14,0.18 0.16,0.41l0.27 0.8c0.03,0.12 0.06,0.24 0.1,0.38 0.2,0.84 -0.41,-0.14 0.24,1.3 2.22,0.84 1.22,-1.35 1,-2.24 0.34,-4.86 -5,-22.06 -4.16,-25.12l33.7 -1.24 0.04 -15.65 0 -15.74 -0.01 -6.44 -3.26 0.17c-4.31,-0.49 -13.76,0.55 -18.63,0.79 -17.8,0.89 -38.14,1.74 -55.72,1.5 -19.61,-0.26 -31.69,-0.38 -48.99,-8.65l-12.6 -6.31c-2.7,0.09 -6,5.07 -15.5,5.08l5.11 78.97 -2.04 0.03 -0.26 -6.5 -3.97 0.26 0.35 6.45 -2.43 -0.04 0 -6.18 -3.75 0.36 0.35 6.26 -2.48 0.07 -0.02 -6.12 -3.97 0.34 -0.03 6.23 -2.06 0.23z"/>
   <path class="fil1" d="M191.38 282.21c0.01,1.88 -7.32,20.09 -8.57,23.36 -3.18,8.32 -5.62,17.26 -2.49,26.95 1.65,0.93 2.01,1.7 4.21,2.67 1.67,0.74 3.46,1.19 5.44,1.55 3.97,0.73 8.54,1.3 12.53,0.51 2.24,-0.69 2.14,-1.84 3.74,-3.3 2.89,-2.64 6.66,-8.48 8.35,-12.26l7.47 -20.24 -15.32 3.19c1.72,-2.65 5.65,-5.79 8.11,-8.25 1,-1 7.53,-7.67 7.78,-8.35 0.64,-1.78 -3.76,-23.58 -4.17,-27.77 2.3,0.75 5.6,3.06 7.8,4.32 2.42,1.4 5.34,3.5 7.86,4.38l6.31 -16.53c0.39,-2.53 1.12,-2.5 4.01,-1.91l0 64.52c0.09,10.83 2.3,11.59 4.04,18.51 2.28,1.13 0.63,2.49 3.07,3.44 1.16,0.45 4.49,0.95 5.9,1.08 4.53,0.43 9.51,0.32 12.64,-1.73 1.91,-1.16 5.48,-7.48 6.75,-10.54 1.91,-4.58 2.44,-8.9 3.03,-14.34 1.1,-10.15 2.51,-20.87 3.29,-31.17 -1.6,-1.21 -3.44,-5.66 -4.97,-7.56 -1.88,2.92 -2.98,6.07 -4.82,8.72l-19.91 2.31 1.54 -41.77c0.59,-11.51 0.09,-25.59 -0.47,-37.1l-27.68 -1.8 -27.98 80.71 -7.49 -1.6z"/>
   <path class="fil2" d="M243 49.72c1.47,0.05 0.23,-0.5 1.61,0.69 0.33,0.29 0.78,0.89 1.18,1.3 0.97,1.02 1.77,1.39 2.19,2.76 1.76,0.63 2.24,2.12 3.52,3.08l13.29 6.1c-1.96,0.88 -5.31,0.9 -7.71,1.21 -5.93,0.77 -5.27,0.12 -6.46,2.61 -1.82,3.83 -3.94,8.63 -6.13,12.03 -1.07,-1.51 -3.42,-6.77 -3.42,-8.52l-0.93 -1.27c-0.02,-0.04 -0.53,-1.23 -0.61,-1.43 -0.41,-0.98 -0.67,-1.66 -1.12,-2.6 -3.26,1.72 -6.59,4.28 -9.67,6.3 -0.81,0.53 -1.08,0.76 -1.84,1.13 -1.98,0.99 -0.78,0.54 -1.28,0.21 -1.52,0.79 -1.75,1.94 -5.2,4.37 -1.98,1.38 -3.44,2.51 -5.64,3.84 -3.99,2.43 -8.22,4.24 -13.16,6.22 -8.9,3.56 -20.27,7.11 -23.06,15.3 4.31,0.93 8.04,2.32 12.74,3.15 2.34,0.42 4.46,0.76 6.77,1.05 1.79,0.22 5.71,-0.07 6.69,1.26 1.11,-0.93 1.23,-0.52 4.43,-0.37l15.56 -0.51c2.83,-0.28 9.94,-1.69 11.81,-1.28 1.01,-1.1 4.08,-1.27 5.65,-1.5l5.74 -1.37c6.93,-2.12 17.92,-5.09 25.56,-4.89 3.83,0.1 24.94,2.55 26.75,4.02 1.72,-0.96 32.46,4.18 34.22,10.07 0.05,-0.09 0.11,-0.36 0.13,-0.3 0.01,0.05 0.09,-0.24 0.11,-0.32 0.03,-0.13 0.36,-0.72 0.12,-2.61 -1.48,-11.5 -16.04,-7.83 -31.05,-20.09 -6.24,-5.1 -15.84,-13.78 -19.82,-20.17 -3.64,-5.83 -4.69,-10.78 -5.98,-17.51 -0.61,-3.19 -1.42,-3.48 -3.11,-4.99 -6.96,-2.4 -16.75,-3.78 -24.77,-3.71 -5,0.5 -5.36,3.03 -7.11,6.74z"/>
   <path class="fil1" d="M240.52 134.07c-1.77,-0.8 -6.48,-5.5 -8.59,-7.07 -0.85,-0.64 -9.54,-4.51 -10.12,-4.63 2.22,-0.16 6.56,0.01 8.83,0.2 1.93,0.17 1.93,0.53 3.27,1.62 5.33,4.3 4.99,5.1 8.64,3.68 2.05,-0.8 4.96,-2.1 7.22,-2.56 0.84,1.76 2.3,2.16 4.71,4.7 2.16,2.28 2.81,1.14 6.06,-0.24 9.28,-3.94 5.2,-3.02 12.55,1.12 3.65,-1.12 3.72,-3.73 8.26,-2.6 2.94,0.72 6.89,1.1 9.26,2.43 -3.26,0.23 -9.71,-0.06 -12.17,1.28 -2.37,1.28 -4.87,4 -7.41,5.34l-5.26 -5.72c-2.79,0.71 -7.89,3.72 -10.64,5.13 -2.77,-2.27 -5.18,-5.31 -7.63,-6.79l-6.98 4.11zm24.89 -10.95c-1.62,0.26 -6.99,-0.42 -9.14,-0.75 -1.81,-0.27 -2.27,-0.37 -1.64,-2.15l5.84 -14.01c0.77,-1.96 0.49,-2.46 2.53,-2.69l2.41 19.6zm11.54 -22.52c2.07,-0.58 7.47,-0.06 9.28,0.95 2.25,1.24 3.18,3.67 4.38,6.36 1.65,3.7 2.62,4.32 -0.02,7.39 -1.32,1.55 -3.56,4.34 -5.75,4.95 -1.9,0.54 -8.23,0 -10.02,-0.7 -2.45,-0.96 -3.73,-3.54 -4.79,-5.92 -1.62,-3.62 -0.43,-4.94 1.26,-7.74 1.7,-2.81 2.33,-4.36 5.66,-5.29zm-29 2.88c1.37,4.6 2.94,4.64 -0.72,8.02 -1.29,1.19 -4.46,4.17 -7.18,4.31 -1.6,0.08 -8.99,-0.98 -10.27,-1.51 -2.38,-0.98 -4.03,-3.77 -5.03,-6.67l-15.56 0.51c-3.2,-0.15 -3.32,-0.56 -4.43,0.37 -1.11,6.99 -0.75,12.87 1.23,19.33 2.13,4.12 3.55,7.54 6.52,9.92 1.65,1.33 2.81,2.23 4.96,3.29 1.82,0.9 3.93,1.64 5.37,2.84 3.4,2.09 2.18,4.81 17.04,6.46 7.75,0.86 14.39,1.23 22.29,1.1 4.2,-0.07 7.83,-0.49 11.87,-1.2 1.85,-0.32 3.62,-0.68 5.5,-1.09 2.4,-0.52 2.94,-1.11 4.66,-1.75 2.28,-2.71 4.64,-3.77 8.2,-5.59 3.51,-1.79 5.84,-3.3 7.49,-6.49 1.87,-5.49 2.65,-10.3 3.31,-16.5 0.78,-7.34 -0.63,-10.22 -2.94,-16.22 -1.81,-1.47 -22.92,-3.92 -26.75,-4.02 -7.64,-0.2 -18.63,2.77 -25.56,4.89z"/>
   <path class="fil2" d="M262.17 151.45c-2.22,0.39 -3.16,-0.48 -5.27,0.5l-6.61 2.6c-2.82,1.16 -7.05,4.12 -7.93,7.09l11.2 0.18 0.97 43.08c0.56,11.51 1.06,25.59 0.47,37.1l2.06 -0.23 0.03 -6.23 3.97 -0.34 0.02 6.12 2.48 -0.07 -0.35 -6.26 3.75 -0.36 0 6.18 2.43 0.04 -0.35 -6.45 3.97 -0.26 0.26 6.5 2.04 -0.03 -5.11 -78.97c9.5,-0.01 12.8,-4.99 15.5,-5.08 -0.91,-3.65 2.28,-5.32 -1.5,-9.15 -1.72,0.64 -2.26,1.23 -4.66,1.75 -1.88,0.41 -3.65,0.77 -5.5,1.09 -4.04,0.71 -7.67,1.13 -11.87,1.2z"/>
   <path class="fil3" d="M82.93 179.63l0.03 -4.28 -34.55 0c-3.41,0 -7.85,0.67 -7.77,-3.34 0.07,-4.03 4.92,-3.15 8.19,-3.15 9.55,0 26.29,0.43 34.32,-0.08l-0.03 -6.83 -57.15 -11.96c0.87,0.26 25.08,15.28 26.54,16.52 -15.01,-1.46 -30.43,-4.31 -45.83,-4.53l12.46 8.37c3.67,2.4 2.91,2.12 8.25,2.11 3.45,-0.01 6.94,-0.05 10.38,0.03 -2.44,1.91 -5.6,3.4 -8.46,5.14l-8.04 4.87c-0.04,-0.08 -0.16,0.14 -0.23,0.31l19.34 -3.62 -12.06 15.33c6.12,-1.03 42.97,-12.37 54.61,-14.89z"/>
   <path class="fil3" d="M451.44 168.74c3.39,0.31 13.57,-0.96 15.41,1.19 1.47,1.71 0.69,4.57 -1.39,5.22 -2.34,0.73 -35.41,-0.42 -40.55,0.35l0 15.74c4.74,-0.57 12.16,-0.11 17.2,-0.13 5.98,-0.02 8.21,1.84 12.99,4.16l23.75 10.97c-1.26,-1.92 -18.51,-16.77 -19.53,-18.61l26.95 6.99c-2.48,-1.63 -8.7,-4.46 -11.82,-5.89l-11.98 -6.17c6.58,0 15.84,-0.53 22.1,0.1 5.03,0.51 12.09,3.68 17.47,4.54 -1.96,-1.82 -16.28,-11.63 -18.86,-12.17l-15.2 -2.93c0.95,-1.22 5.7,-4.3 7,-5.16 1.49,-0.99 5.74,-3.78 6.65,-4.81 -4.25,0.36 -16.96,3.57 -22.81,4.74 -1.54,0.32 -6.13,1.11 -7.38,1.87z"/>
   <path class="fil3" d="M248.52 375.65c0.62,-3.65 3,-7.88 3.73,-10.93 0.41,5.17 -0.3,10.5 0.36,15.7 0.29,2.23 1.35,12.38 1.93,13.6 1.2,-0.37 0.81,-0.31 1.15,-1.96l1.41 -7.27c0.73,-3.64 1.3,-6.46 1.57,-10.38 0.12,-1.72 0.86,-20.07 2.05,-21.54 0.94,2.35 4.08,25.4 4.92,31.06 0.64,4.38 1.85,4.6 3.31,8.03l0.07 -25.84c0.94,0.3 0.52,0.05 1.1,0.94 0.04,0.07 0.46,1.05 0.5,1.16 3.44,8.29 3,9.65 9.5,14.23 -1.46,-8.88 -10.26,-41.55 -10.03,-46.1 -3.13,2.05 -8.11,2.16 -12.64,1.73 -1.41,-0.13 -4.74,-0.63 -5.9,-1.08 -2.44,-0.95 -0.79,-2.31 -3.07,-3.44 -0.2,17.49 0.8,8.87 -2.68,25.92 -1.54,7.56 -4.05,16.94 -4.94,24.41 1.55,-0.99 4.01,-4.44 5.47,-6.15l2.19 -2.09z"/>
   <path class="fil4" d="M81.18 28.91c-5.8,1.28 -8.71,3.58 -11.32,7.07 -2.61,3.49 -4.31,8.88 -3.29,14.38 1.65,8.87 10.58,17.09 22.01,14.59 8.74,-1.91 16.36,-10.57 14.23,-21.56 -1.71,-8.78 -10.6,-16.92 -21.63,-14.48z"/>
   <path class="fil3" d="M202.5 337.25c-3.99,0.79 -8.56,0.22 -12.53,-0.51 -1.98,-0.36 -3.77,-0.81 -5.44,-1.55 -2.2,-0.97 -2.56,-1.74 -4.21,-2.67 -0.82,2.27 -3.72,6.52 -5.04,8.81 -4.61,8.04 -11.2,18.03 -14.99,25.51 1.87,-0.78 4.01,-1.85 5.92,-2.83 3.18,-1.64 2.63,-0.99 4.52,-4.15l6.56 -10.52c-3.63,10.29 -9.53,21.3 -10.97,33.31 2.58,-2.09 8.3,-9.76 9.98,-13.12l7.68 -14.8 -5.86 23.14c0.33,-0.82 14.03,-18.21 14.84,-18.63 0.31,3.66 0.8,7.19 1.18,10.83 0.33,3.13 1.62,5.72 4.03,7.72l4.33 -40.54z"/>
   <path class="fil0" d="M240.43 252.44c-0.48,52.23 -0.01,105.38 -0.01,157.84 0,3.29 -0.85,11.02 1.06,13.06 1.13,1.21 7.08,3.65 7.04,-4.81l0 -42.88 -2.19 2.09c-1.46,1.71 -3.92,5.16 -5.47,6.15 0.89,-7.47 3.4,-16.85 4.94,-24.41 3.48,-17.05 2.48,-8.43 2.68,-25.92 -1.74,-6.92 -3.95,-7.68 -4.04,-18.51l0 -64.52c-2.89,-0.59 -3.62,-0.62 -4.01,1.91z"/>
   <polygon class="fil3" points="226.85,203.1 254.53,204.9 253.56,161.82 242.36,161.64 241.18,161.56 "/>
   <path class="fil0" d="M299.89 135.33c2.86,-0.63 16.89,-7.05 19.78,-8.68 3.29,-1.85 5.97,-3.89 8.37,-6.06 1.78,-1.61 5.22,-5.49 6.44,-7.91 -1.76,-5.89 -32.5,-11.03 -34.22,-10.07 2.31,6 3.72,8.88 2.94,16.22 -0.66,6.2 -1.44,11.01 -3.31,16.5z"/>
   <path class="fil5" d="M403.14 256.66l-2.67 0.52c-0.85,-0.86 0.19,0.28 -0.61,-0.94l-0.62 -0.91 -8.23 1.44c-1.47,-3.06 -0.25,-2.84 3.18,-7.36 0.81,-1.06 1.78,-2.21 2.61,-3.17 1.28,-1.47 1.77,-1.78 4.4,-1.69 1.34,9.21 0.82,7.42 3.81,7.03l0.39 2.45 -2.26 0.64 0 1.99zm-19.05 -19.11c-0.85,1.26 -0.57,6.74 -0.35,8.12 0.33,1.99 1.44,4.21 2.17,6.02 4.79,11.85 0.79,8.92 2.61,13.86 4.76,2.12 19.77,-2 23.01,-4.51 -0.77,-5.67 -3.14,-5.66 -2.91,-13.17 0.1,-3.01 -0.04,-12.05 -2.51,-14.5 -0.08,1.2 0.13,0.63 -0.68,1.31l-3.61 1.34c-3.37,0.98 -15.79,3.85 -17.73,1.53z"/>
   <path class="fil3" d="M250.11 42.98c8.02,-0.07 17.81,1.31 24.77,3.71l6.88 -18.91c-1.84,1.3 -6.61,7.76 -9.06,9.82l4.48 -17.65c-2.51,2.47 -4.44,6.6 -6.98,8.88 -1.13,-1.73 -2.12,-10.12 -2.75,-12.79 -0.07,0.1 -0.16,0.14 -0.18,0.32 -0.03,0.18 -0.13,0.24 -0.17,0.32 -0.82,2.03 -2.25,12.34 -2.98,15.21 -0.79,-1.04 -2.25,-6.18 -2.62,-7.44 -1.32,-4.53 -0.76,-3.4 -4.61,-5.69 -4.94,-2.94 -7.41,-5.43 -14.23,-6.17l14.45 10.43 0.71 11.67c-2.67,-1.22 -9.32,-6.92 -12.66,-8.58 4.25,10.73 4.27,3.5 4.95,16.87z"/>
   <path class="fil5" d="M106.95 235.02c0,-2.6 0.13,-2.76 1.78,-3.93 4.95,-3.5 6.61,-5.96 11.36,-5.42l-0.61 7.61 2.44 0.56 -0.15 2.06c-1.03,0.55 -1.06,0.31 -2.6,0.21 -0.15,2.29 -0.23,1.49 -0.67,1.96l-2.48 -0.26c-0.26,-0.63 -0.12,-0.64 -0.3,-1.09 -0.37,-0.93 0.04,-0.28 -0.52,-0.99l-8.25 -0.71zm20.96 -18.08c-3.46,1.42 -8.68,0.9 -12.47,0.5 -1.86,-0.2 -3.86,-0.46 -5.68,-0.84 -1.58,-0.33 -4.22,-0.47 -4.05,-2.16 -1.13,1.03 -0.38,-0.32 -0.88,1.66 -0.82,3.18 -0.57,16.7 -1.27,20.08 -0.46,2.24 -1.18,4.49 -1.1,6.73 4.01,2.77 18.63,3.56 23.35,1.54 0.45,-3.04 -0.38,-11.4 -0.59,-14.93 -0.41,-6.83 1.59,-7.1 2.69,-12.58z"/>
   <path class="fil5" d="M349.56 239.99c11.23,-3.46 13.03,9.76 6.14,11.71 -8.27,2.34 -12.07,-3.4 -9.97,-8.71 0.86,-2.18 1.89,-2.4 3.83,-3zm15.61 -9.13c-4.25,0.94 -20.37,1.19 -22.65,-1.94 -1.47,1.91 -1.15,18.5 -1.64,21.62 -0.34,2.12 -0.87,4.27 -0.9,6.38 4.18,3.26 18.54,2.93 23.55,1.42 0.03,-4.75 -1.91,-9.69 -1.01,-14.22 0.86,-4.33 2.02,-8.85 2.65,-13.26z"/>
   <path class="fil3" d="M222.06 301.45l12.06 -32.48c-2.52,-0.88 -5.44,-2.98 -7.86,-4.38 -2.2,-1.26 -5.5,-3.57 -7.8,-4.32 0.41,4.19 4.81,25.99 4.17,27.77 -0.25,0.68 -6.78,7.35 -7.78,8.35 -2.46,2.46 -6.39,5.6 -8.11,8.25l15.32 -3.19z"/>
   <path class="fil0" d="M205.99 127.84c-1.98,-6.46 -2.34,-12.34 -1.23,-19.33 -0.98,-1.33 -4.9,-1.04 -6.69,-1.26 -2.31,-0.29 -4.43,-0.63 -6.77,-1.05 -4.7,-0.83 -8.43,-2.22 -12.74,-3.15 1.97,7.82 5.78,12.45 10.22,16 3.88,3.1 11.24,7.5 17.21,8.79z"/>
   <path class="fil6" d="M284.6 108.36c0.95,5.87 -4.7,5.89 -5.8,2.66 -0.6,-1.78 0.48,-3.3 1.64,-3.84 1.9,-0.88 2.99,0.36 4.16,1.18zm-7.65 -7.76c-3.33,0.93 -3.96,2.48 -5.66,5.29 -1.69,2.8 -2.88,4.12 -1.26,7.74 1.06,2.38 2.34,4.96 4.79,5.92 1.79,0.7 8.12,1.24 10.02,0.7 2.19,-0.61 4.43,-3.4 5.75,-4.95 2.64,-3.07 1.67,-3.69 0.02,-7.39 -1.2,-2.69 -2.13,-5.12 -4.38,-6.36 -1.81,-1.01 -7.21,-1.53 -9.28,-0.95z"/>
   <path class="fil5" d="M218.35 148.59l0.79 0.18c-0.32,4.95 4.23,6.83 8.77,8.63 4.18,1.66 9.43,2.56 13.27,4.16l1.18 0.08c0.88,-2.97 5.11,-5.93 7.93,-7.09l6.61 -2.6c2.11,-0.98 3.05,-0.11 5.27,-0.5 -7.9,0.13 -14.54,-0.24 -22.29,-1.1 -14.86,-1.65 -13.64,-4.37 -17.04,-6.46 -1.36,0.6 -2.05,1.06 -2.67,1.99 -1.24,1.85 -0.06,1.26 -1.82,2.71z"/>
   <path class="fil5" d="M82.93 179.63l0.2 12.6 36.36 0.01 -0.22 1.48c0.72,-0.96 0.57,-0.53 0.28,-1.75l-36.28 -0.12 -0.12 -23.07c-8.03,0.51 -24.77,0.08 -34.32,0.08 -3.27,0 -8.12,-0.88 -8.19,3.15 -0.08,4.01 4.36,3.34 7.77,3.34l34.55 0 -0.03 4.28z"/>
   <path class="fil0" d="M240.52 134.07l6.98 -4.11c2.45,1.48 4.86,4.52 7.63,6.79 2.75,-1.41 7.85,-4.42 10.64,-5.13l5.26 5.72c2.54,-1.34 5.04,-4.06 7.41,-5.34 2.46,-1.34 8.91,-1.05 12.17,-1.28 -2.37,-1.33 -6.32,-1.71 -9.26,-2.43 -4.54,-1.13 -4.61,1.48 -8.26,2.6 -7.35,-4.14 -3.27,-5.06 -12.55,-1.12 -3.25,1.38 -3.9,2.52 -6.06,0.24 -2.41,-2.54 -3.87,-2.94 -4.71,-4.7 -2.26,0.46 -5.17,1.76 -7.22,2.56 -3.65,1.42 -3.31,0.62 -8.64,-3.68 -1.34,-1.09 -1.34,-1.45 -3.27,-1.62 -2.27,-0.19 -6.61,-0.36 -8.83,-0.2 0.58,0.12 9.27,3.99 10.12,4.63 2.11,1.57 6.82,6.27 8.59,7.07z"/>
   <path class="fil5" d="M424.91 175.5c5.14,-0.77 38.21,0.38 40.55,-0.35 2.08,-0.65 2.86,-3.51 1.39,-5.22 -1.84,-2.15 -12.02,-0.88 -15.41,-1.19 -4.07,0.02 -28.28,-0.45 -29.8,0.49l3.26 -0.17 0.01 6.44z"/>
   <path class="fil3" d="M241.07 70.98c0,1.75 2.35,7.01 3.42,8.52 2.19,-3.4 4.31,-8.2 6.13,-12.03 1.19,-2.49 0.53,-1.84 6.46,-2.61 2.4,-0.31 5.75,-0.33 7.71,-1.21l-13.29 -6.1c-1.28,-0.96 -1.76,-2.45 -3.52,-3.08l-6.91 16.51z"/>
   <path class="fil6" d="M242.21 104.85c-0.23,1.58 -0.71,2.74 -2.24,3.12 -0.84,0.22 -1.76,0.12 -2.41,-0.2 -1.17,-0.59 -0.87,-0.39 -1,-1.42 -1.87,-0.41 -8.98,1 -11.81,1.28 1,2.9 2.65,5.69 5.03,6.67 1.28,0.53 8.67,1.59 10.27,1.51 2.72,-0.14 5.89,-3.12 7.18,-4.31 3.66,-3.38 2.09,-3.42 0.72,-8.02l-5.74 1.37z"/>
   <path class="fil0" d="M225.62 73.32c0.5,0.33 -0.7,0.78 1.28,-0.21 0.76,-0.37 1.03,-0.6 1.84,-1.13 3.08,-2.02 6.41,-4.58 9.67,-6.3 0.45,0.94 0.71,1.62 1.12,2.6 0.08,0.2 0.59,1.39 0.61,1.43l0.93 1.27 6.91 -16.51c-0.42,-1.37 -1.22,-1.74 -2.19,-2.76 -0.4,-0.41 -0.85,-1.01 -1.18,-1.3 -1.38,-1.19 -0.14,-0.64 -1.61,-0.69 -2.45,4.75 -4.75,8.65 -7.74,12.73 -3.21,4.39 -6.19,7.5 -9.64,10.87z"/>
   <path class="fil0" d="M265.41 123.12l-2.41 -19.6c-2.04,0.23 -1.76,0.73 -2.53,2.69l-5.84 14.01c-0.63,1.78 -0.17,1.88 1.64,2.15 2.15,0.33 7.52,1.01 9.14,0.75z"/>
   <path class="fil6" d="M348.6 247.44c-1.57,-6.12 6.59,-6.69 7.71,-2.79 1.72,5.96 -6.67,6.85 -7.71,2.79zm0.96 -7.45c-1.94,0.6 -2.97,0.82 -3.83,3 -2.1,5.31 1.7,11.05 9.97,8.71 6.89,-1.95 5.09,-15.17 -6.14,-11.71z"/>
   <path class="fil6" d="M110.92 233.17c1.59,-1.29 3.45,-2.9 5.41,-4.1l-0.3 4.58 -5.11 -0.48zm-3.97 1.85l8.25 0.71c0.56,0.71 0.15,0.06 0.52,0.99 0.18,0.45 0.04,0.46 0.3,1.09l2.48 0.26c0.44,-0.47 0.52,0.33 0.67,-1.96 1.54,0.1 1.57,0.34 2.6,-0.21l0.15 -2.06 -2.44 -0.56 0.61 -7.61c-4.75,-0.54 -6.41,1.92 -11.36,5.42 -1.65,1.17 -1.78,1.33 -1.78,3.93z"/>
   <path class="fil6" d="M394.16 253.98c1.21,-1.81 2.9,-3.93 4.27,-5.31l0.73 4.49 -5 0.82zm8.98 0.69l2.26 -0.64 -0.39 -2.45c-2.99,0.39 -2.47,2.18 -3.81,-7.03 -2.63,-0.09 -3.12,0.22 -4.4,1.69 -0.83,0.96 -1.8,2.11 -2.61,3.17 -3.43,4.52 -4.65,4.3 -3.18,7.36l8.23 -1.44 0.62 0.91c0.8,1.22 -0.24,0.08 0.61,0.94l2.67 -0.52 0 -1.99z"/>
   <path class="fil3" d="M122.13 105.55l-10.43 0.1 10.39 2.96 1.67 11c0.76,-1.31 0.98,-3.39 1.31,-4.94l1.49 -4.82c1.37,-1.12 6.63,-1.68 8.74,-2.39l-9.25 -1.87 -0.8 -9.19c-0.89,2.57 -2.35,6.06 -3.12,9.15z"/>
   <path class="fil3" d="M352.99 56.49l-10.43 0.1 10.37 2.96 1.62 10.69c1.61,-2.45 1.13,-6.85 2.64,-9.58l9 -2.18 -9.28 -1.94 -0.74 -8.49c-1.16,1.2 -1.26,2.38 -1.79,4.06 -0.48,1.49 -1,2.82 -1.39,4.38z"/>
   <path class="fil2" d="M384.09 237.55c1.94,2.32 14.36,-0.55 17.73,-1.53l3.61 -1.34c0.81,-0.68 0.6,-0.11 0.68,-1.31 -3.27,-1.35 -7.95,0.86 -10.78,-0.12 0.22,0.89 1.22,3.08 -1,2.24 -0.65,-1.44 -0.04,-0.46 -0.24,-1.3 -0.04,-0.14 -0.07,-0.26 -0.1,-0.38l-0.27 -0.8c-0.02,-0.23 -0.08,-0.28 -0.16,-0.41l-0.25 1.52c-1.93,0.45 -8.15,1.39 -9.22,3.43z"/>
   <path class="fil2" d="M105.71 214.44c-0.17,1.69 2.47,1.83 4.05,2.16 1.82,0.38 3.82,0.64 5.68,0.84 3.79,0.4 9.01,0.92 12.47,-0.5 -0.33,-2.02 -7.09,-2.65 -9.41,-2.93 -0.47,3.45 -2.7,2.75 -1.65,-0.36 -2.9,0.16 -6.48,-0.31 -9.44,0.14 -1.55,0.23 -1.61,0.54 -1.7,0.65z"/>
   <path class="fil2" d="M353.14 227.7c-1.88,-0.06 -9.43,-0.81 -10.62,1.22 2.28,3.13 18.4,2.88 22.65,1.94 -0.12,-3.14 -8.62,-1.51 -10.03,-3.57 -0.92,2.18 0.9,2.5 -1.95,2.8l-0.05 -2.39z"/>
   <path class="fil5" d="M348.6 247.44c1.04,4.06 9.43,3.17 7.71,-2.79 -1.12,-3.9 -9.28,-3.33 -7.71,2.79z"/>
   <polygon class="fil3" points="374.94,141.48 367.34,141.52 374.84,143.66 376.28,152.18 377.97,144.71 384.8,142.93 377.93,141.43 377.3,134.65 "/>
   <path class="fil7" d="M169.7 52.17l-6.96 0.03 6.85 1.96 1.1 6.97 1.68 -6.23 5.9 -1.41c-6.53,-2.4 -5.5,1.43 -6.51,-6.95 -0.08,0.09 -0.17,0.12 -0.2,0.29l-1.86 5.34z"/>
   <path class="fil0" d="M284.6 108.36c-1.17,-0.82 -2.26,-2.06 -4.16,-1.18 -1.16,0.54 -2.24,2.06 -1.64,3.84 1.1,3.23 6.75,3.21 5.8,-2.66z"/>
   <path class="fil0" d="M236.56 106.35c0.13,1.03 -0.17,0.83 1,1.42 0.65,0.32 1.57,0.42 2.41,0.2 1.53,-0.38 2.01,-1.54 2.24,-3.12 -1.57,0.23 -4.64,0.4 -5.65,1.5z"/>
   <path class="fil8" d="M110.92 233.17l5.11 0.48 0.3 -4.58c-1.96,1.2 -3.82,2.81 -5.41,4.1z"/>
   <path class="fil5" d="M394.16 253.98l5 -0.82 -0.73 -4.49c-1.37,1.38 -3.06,3.5 -4.27,5.31z"/>
  </g>
 </g>
</svg>
